<?xml version="1.0" encoding="utf-8"?>
<!-- Generator: Adobe Illustrator 21.0.2, SVG Export Plug-In . SVG Version: 6.00 Build 0)  -->
<svg version="1.1" id="Layer_1" xmlns="http://www.w3.org/2000/svg" xmlns:xlink="http://www.w3.org/1999/xlink" x="0px" y="0px"
	 viewBox="0 0 300 300" style="enable-background:new 0 0 300 300;" xml:space="preserve">
<style type="text/css">
	.st0{fill:#D8D20B;}
	.st1{opacity:0.38;}
	.st2{fill:#FFFDFD;}
	.st3{fill:#F74608;}
	.st4{fill:none;stroke:#FFFFFF;stroke-miterlimit:10;}
</style>
<g>
	<path class="st0" d="M113.8,202.9l0,0.3l0,0.3l0,0.3l-0.1,0.4l-0.1,0.3l-0.1,0.3l-0.1,0.2l-0.2,0.3l-0.2,0.2l-0.2,0.3l-0.2,0.2
		l-0.2,0.2l-0.2,0.2l-0.2,0.2l-0.2,0.2l-0.4,0.2l-0.3,0.1l-0.3,0.1l-0.3,0.1l-0.4,0.1l-0.3,0.1l-0.3,0l-0.3,0l-0.4,0h-1.4l-0.3,0
		l-0.3,0l-0.3,0l-0.2,0l-0.1,0.1l0,0.2l-0.1,1.1v0.3l0,0.5l0,0.3l0,0.4l0,0.2l-0.1,0.1l-0.1,0l-0.2,0l-0.5,0l-0.7,0h-0.3l-0.5,0
		l-0.3,0l-0.4,0l-0.2-0.1l-0.1-0.1l0-0.2l0-0.3l0-0.3v-1.8l0.1-0.9v-0.3l-0.1-0.9v-0.3l0-2.1v-0.3l0.1-0.9v-0.3l-0.1-0.9V201
		l0.1-0.9v-0.3l0-0.5l0-0.3l0-0.1l0-0.2l0.1-0.1l0.1-0.1l0.2,0l0.5,0l0.4,0h0.3l1.1,0h1.1l1.1,0.1h1.1l0.6,0l0.2,0h0.1l0.3,0.1
		l0.4,0.1l0.3,0.1l0.3,0.1l0.3,0.1l0.3,0.2l0.2,0.2l0.3,0.3l0.2,0.2l0.1,0.1l0.3,0.3l0.2,0.2l0.1,0.1l0.1,0.2l0.1,0.1l0.1,0.2
		l0.1,0.3l0.1,0.2l0,0.1l0.1,0.2l0,0.1l0.1,0.2l0.1,0.5V202.9z M110.3,203.2v-0.4l-0.1-0.3l-0.1-0.1l-0.1-0.2l-0.1-0.1l-0.2-0.2
		l-0.1-0.1l-0.3-0.1l-0.4-0.1l-0.3,0h-0.4l-0.5,0l-0.8-0.1h-0.3l-0.1,0l-0.2,0l-0.1,0.1l-0.1,0.1l0,0.2v0.4l0.1,0.6l0,0.3l0,1l0,0.2
		l0.1,0.1l0.2,0.1l0.9,0.1l1.2-0.1l0.3,0l0.3-0.1l0.1-0.1l0.2-0.1l0.1-0.1l0.2-0.2l0.1-0.1l0.1-0.2l0.1-0.1l0.1-0.3L110.3,203.2z"/>
	<path class="st0" d="M125,210.1l0,0.3v0.2l-0.1,0.2l-0.1,0.1l-0.1,0.1l-0.2,0h-0.1l-0.2,0l-1.9-0.1H121l-1.5,0.1l-1-0.1h-1.3
		l-0.8,0.1h-0.3l-0.2,0l-0.2,0l-0.1-0.1l-0.1-0.1l0-0.2v-0.3l0.1-0.6l0-0.3l-0.1-0.9v-0.3l0-0.9v-0.3l0-2.1v-0.3l-0.1-2.1v-0.3
		l0-0.9v-1.5l0-0.5v-0.3l0-0.2l0.1-0.2l0.1-0.1l0.1-0.1l0.2,0h0.1l0.3,0l0.8,0.1h0.3l1.2,0h0.2l0.1,0.1l0.1,0.1v1.5l0,1v0.3l-0.1,1
		v0.3l0,1v0.3l0.1,1v0.3l-0.1,2.3l0,0.2l0,0.1l0,0.1l0.1,0.1l0.2,0l0.6,0l0.5,0h0.3l2.5,0l0.3,0l0.6-0.1l0.3,0h0.3l0.2,0.1l0.1,0.1
		l0.1,0.1l0,0.2l0,1l0,0.3L125,210.1z"/>
	<path class="st0" d="M136.8,209.3l0,0.3l-0.1,0.9l0,0.2l-0.1,0.1l-0.1,0.1l-2.2,0.1H134l-0.9-0.1l-0.3,0l-0.9,0.1l-0.3,0h-1.2
		l-0.9-0.1h-0.3l-1.5,0.1l-0.6,0l-0.2,0l-0.1-0.1l-0.1-0.1l0-0.2l0-0.4l0-0.3l0-0.3v-0.3l0.1-0.9v-0.3l0-0.9l0-0.3l-0.1-0.9l0-0.3
		l0-0.9v-1.5l0.1-0.9l0-0.3l-0.1-0.9l0-0.3v-0.4l0-0.5v-0.3l0.1-0.9l0-0.2l0.1-0.1l0.1-0.1l0.1,0l0.2,0l1.1,0.1l1,0h0.3l1,0.1h0.3
		l1-0.1h0.3l2.3,0l0.3,0l0.6-0.1h0.4l0.2,0.1l0.1,0.1l0,0.1l0,0.2v0.5l0,0.4v0.3l0,0.4l0,0.3l0,0.3l0,0.2l-0.1,0.1l-0.1,0.1l-0.2,0
		H136l-0.3,0l-1.6,0h-0.3l-0.9,0h-0.3l-0.9,0l-0.8-0.1h-0.3l-0.1,0l-0.2,0l-0.1,0.1l0,0.1l0,0.2l0,0.4v0.3l0,0.3l0,0.2l0,0.1
		l0.1,0.1l0.2,0.1l0.5,0l0.5,0h1.6l1.9-0.1l0.5,0l0.2,0l0.1,0.1l0.1,0.1l0,0.2l0,0.3l0,0.3v0.6l0,0.4l0,0.5l0,0.2l-0.1,0.1l-0.1,0.1
		l-0.2,0h-0.3l-0.8-0.1l-0.3,0l-1.4,0.1l-1.1,0h-0.3L131,206l-0.3,0l-0.2,0l-0.1,0.1l-0.1,0.1l0,0.3l-0.1,0.4l0,0.3v0.4l0,0.2
		l0.1,0.1l0.1,0.1l0.2,0l0.9,0h0.3l0.9-0.1l1.2,0.1h0.3l1.2-0.1h0.3l0.3,0l0.6,0.1l0.1,0.1l0.1,0.1l0,0.2L136.8,209.3z"/>
	<path class="st0" d="M150,207.1l0,0.3l0,0.4l-0.1,0.3l-0.1,0.4l-0.1,0.2l-0.2,0.3l-0.2,0.2l-0.3,0.3l-0.2,0.2l-0.4,0.3l-0.2,0.2
		l-0.2,0.1l-0.3,0.1l-0.3,0.1l-0.3,0.1l-0.8,0.2l-0.4,0.1l-0.3,0l-0.4,0h-0.3l-0.9,0h-1.5l-1-0.1h-0.3l-1.2,0h-0.6l-0.3,0l-0.2,0
		l-0.1-0.1l-0.1-0.1l0-0.2l0-0.3l0-0.2v-0.3l0-0.1v-0.3l0.1-0.9l0-0.3l0-0.4l0-0.3l0-0.2v-0.3l0-0.4v-0.7l0.1-0.9v-0.3l0-0.9v-0.3
		l0-0.9l0-0.3l0.1-0.9l0-0.3l-0.1-0.9l0-0.3l-0.1-0.5v-0.4l0.1-0.2l0.2-0.1l0.2-0.1l0.3,0h0.9l0.9,0l1.5,0.1l0.9,0h0.3l0.9,0h0.3
		l1,0.1l0.3,0l0.3,0.1l0.3,0.1l0.4,0.1l0.3,0.1l0.3,0.2l0.2,0.2l0.3,0.2l0.2,0.2l0.2,0.2l0.1,0.2l0.2,0.3l0.1,0.2l0.1,0.3l0.1,0.3
		l0.1,0.4l0,0.3l0,0.3l-0.1,0.3l-0.1,0.4l-0.1,0.3l-0.2,0.3l-0.2,0.2l-0.4,0.4l-0.1,0.1l0.1,0.1l0.2,0.2l0.2,0.2l0.2,0.2l0.1,0.1
		l0.2,0.2l0.2,0.3l0.1,0.3l0.1,0.2l0.1,0.3l0.1,0.3l0,0.3L150,207.1z M142.2,202.6l0,0.3l0,0.2l0.1,0.1l0.1,0.1l0.2,0h0.4l0.6,0
		l0.3,0l0.4,0l0.6,0h0.4l0.2-0.1l0.2-0.1l0.2-0.1l0.1-0.2l0.1-0.2l0.1-0.2v-0.3l-0.1-0.2l-0.2-0.2l-0.2-0.2l-0.1-0.1l-0.3-0.1
		l-0.1,0l-0.3,0h-0.2l-0.3,0l-0.4,0l-0.3,0l-0.8,0.1h-0.2l-0.2,0l-0.2,0l-0.1,0.1l-0.1,0.1l-0.1,0.2l-0.1,0.4l0,0.3L142.2,202.6z
		 M146.5,207.1l0-0.2l-0.1-0.2l-0.1-0.2l-0.1-0.1l-0.2-0.2l-0.3-0.2l-0.3-0.1l-0.1,0l-0.2,0l-0.8,0l-0.3,0h-1l-0.3,0h-0.1l-0.2,0
		l-0.2,0.1l-0.1,0.1l0,0.2v0.4l0,0.3v0.3l0,0.4v0.3l0,0.2l0.1,0.1l0.1,0.1l0.2,0l1.3,0l1.1,0l0.6,0l0.3,0l0.2-0.1l0.1-0.1l0.1-0.1
		l0.1-0.3l0.1-0.3L146.5,207.1z"/>
	<path class="st0" d="M161.6,209.3l0,0.3l-0.1,0.9l0,0.2l-0.1,0.1l-0.1,0.1l-2.2,0.1h-0.3l-0.9-0.1l-0.3,0l-0.9,0.1l-0.3,0h-1.2
		l-0.9-0.1h-0.3l-1.5,0.1l-0.6,0l-0.2,0l-0.1-0.1l-0.1-0.1l0-0.2l0-0.4l0-0.3l0-0.3v-0.3l0.1-0.9v-0.3l0-0.9l0-0.3l-0.1-0.9l0-0.3
		l0-0.9v-1.5l0.1-0.9l0-0.3l-0.1-0.9l0-0.3v-0.4l0-0.5v-0.3l0.1-0.9l0-0.2l0.1-0.1l0.1-0.1l0.1,0l0.2,0l1.1,0.1l1,0h0.3l1,0.1h0.3
		l1-0.1h0.3l2.3,0l0.3,0l0.6-0.1h0.4l0.2,0.1l0.1,0.1l0,0.1l0,0.2v0.5l0,0.4v0.3l0,0.4l0,0.3l0,0.3l0,0.2l-0.1,0.1l-0.1,0.1l-0.2,0
		h-0.1l-0.3,0l-1.6,0h-0.3l-0.9,0h-0.3l-0.9,0l-0.8-0.1h-0.3l-0.1,0l-0.2,0l-0.1,0.1l0,0.1l0,0.2l0,0.4v0.3l0,0.3l0,0.2l0,0.1
		l0.1,0.1l0.2,0.1l0.5,0l0.5,0h1.6l1.9-0.1l0.5,0l0.2,0l0.1,0.1l0.1,0.1l0,0.2l0,0.3l0,0.3v0.6l0,0.4l0,0.5l0,0.2l-0.1,0.1l-0.1,0.1
		l-0.2,0h-0.3l-0.8-0.1l-0.3,0l-1.4,0.1l-1.1,0h-0.3l-0.7-0.1l-0.3,0l-0.2,0l-0.1,0.1l-0.1,0.1l0,0.3l-0.1,0.4l0,0.3v0.4l0,0.2
		l0.1,0.1l0.1,0.1l0.2,0l0.9,0h0.3l0.9-0.1l1.2,0.1h0.3l1.2-0.1h0.3l0.3,0l0.6,0.1l0.1,0.1l0.1,0.1l0,0.2L161.6,209.3z"/>
	<path class="st0" d="M167.1,208.2v0.3l-0.1,0.9v0.3l0,0.9v0.2l-0.1,0.1l-0.1,0l-0.2,0l-0.9,0h-1.1l-0.9-0.1l-0.1,0l-0.1-0.1v-0.2
		l0-0.4v-0.3l0-0.3v-0.3l-0.1-0.9l0-0.3l0.1-0.9l0-0.3l-0.1-0.9v-0.3l0-0.9v-1.5l0-0.9v-0.3l0-0.9v-1.5l0-0.9l0.1-0.2l0.1-0.1l0.2,0
		h0.1l0.3,0l0.4,0h0.3l0.8,0h1.1l0.2,0l0,0.1l0,0.2l0,0.4l0,0.3v1.7l0,0.9v0.3l0,0.9v0.3l0,0.9v0.3l0,0.9v1.5L167.1,208.2z"/>
	<path class="st0" d="M182.9,210.4l0.1,0.2l-0.1,0.2l-0.2,0.1l-0.2,0h-0.2l-0.4,0l-0.3,0h-0.8l-1.1,0.1l-0.2-0.1l-0.1-0.1l-0.1-0.2
		l-0.5-1.4l-0.1-0.2l-0.2,0l-0.2,0l-1-0.1H177l-1.3,0l-1,0h-0.3l-0.3,0h-0.8l-0.2,0l-0.1,0.1l-0.1,0.2l-0.4,1.2l-0.1,0.3l-0.2,0.2
		l-0.3,0.1h-0.3l-1-0.1h-0.3l-1.1,0.1l-0.2,0l-0.2-0.1l-0.1-0.2l0-0.2l0-0.1l0.1-0.3l0.2-0.5l0.1-0.3l0.4-1l0.1-0.2l0.4-1l0.1-0.3
		l0.4-0.9l0.1-0.3l0.5-1l0.1-0.2l0.6-1.4l0.5-1l0.1-0.3l0.4-0.8l0.1-0.3l0.3-0.8l0.1-0.3l0.3-0.7l0.1-0.2l0.2-0.1l0.3-0.1l0.8,0h1.3
		l0.8,0l0.3,0.1l0.2,0.1l0.1,0.2l0.2,0.7l0.1,0.3l0.4,0.8l0.1,0.2l0.4,0.8l0.1,0.2l0.3,0.9l0.1,0.2l0.4,0.8l0.1,0.2l0.4,0.8l0.1,0.2
		l0.3,0.9l0.1,0.2l0.5,1.1l0.4,0.8l0.1,0.2l0.5,1.1L182.9,210.4z M177.2,205.6l-0.1-0.2l-0.4-1.2l-0.1-0.3l-0.3-1l-0.1-0.2l-0.2-0.1
		l-0.2-0.1l-0.2,0.1l-0.2,0.2l-0.5,1.2l-0.1,0.3l-0.4,1.1l-0.1,0.3l0.1,0.2l0.2,0.1l0.2,0h1.1l0.8,0.1l0.2-0.1l0.1-0.1L177.2,205.6z
		"/>
	<path class="st0" d="M196.3,201.2l0,0.3v2.5l0.1,1v0.3l0,2.3v0.3l0,0.1l0,0.3l-0.1,0.8l0,1l0,0.2l-0.1,0.2l-0.1,0.2l-0.2,0.1
		l-0.2,0.1l-0.2,0l-0.9,0l-0.3,0l-0.4,0h-0.3l-0.2-0.1l-0.2-0.1l-0.2-0.2l-0.2-0.2l-0.3-0.5l-0.2-0.2l-0.7-0.8l-0.2-0.2l-0.7-0.8
		l-0.2-0.2l-0.6-0.9l-0.2-0.2l-0.7-0.8l-0.2-0.2l-0.6-0.8l-0.2-0.1l-0.1,0.1l-0.1,0.2l0,0.9v0.3l0,0.9v0.3l0,1v0.3l-0.1,1l0,0.3
		l0.1,0.7l0,0.3l-0.1,0.2l-0.1,0.1l-0.1,0l-0.2,0l-0.1,0l-0.3,0l-0.8,0h-0.3l-0.7,0h-0.3l-0.3,0l-0.2,0l-0.1-0.1l-0.1-0.1l0-0.2
		l0-0.1v-0.3l0-0.6l0-0.3l-0.1-0.9v-0.3l0-2.1l0-0.3l0.1-0.9l0-0.3v-1.2l-0.1-0.9v-0.3l0.1-0.9l0-0.3l-0.1-0.9l0-0.3v-0.4l0-0.3
		l0-0.3l0-0.2l0.1-0.1l0.1-0.1l0.2,0l0.5,0l0.5,0h1.3l0.2,0l0.1,0.1l0.1,0.2l0.7,0.8l0.2,0.2l0.6,0.8l0.2,0.2l0.6,0.8l0.2,0.2
		l0.6,0.9l0.2,0.2l0.6,0.8l0.2,0.2l0.6,0.9l0.1,0.1l0.1,0l0.1-0.1v-0.2l-0.1-0.7l0-0.3l0.1-0.7v-0.3l-0.1-1v-0.3l0.1-1l0-0.3
		l-0.1-0.6v-0.4l0.1-0.2l0.1-0.1l0.1-0.1l0.2,0h0.2l0.3,0l0.8,0.1h0.3l0.6,0l0.3,0l0.4,0l0.2,0l0.1,0.1l0.1,0.1l0,0.2l0,0.2l0,0.3
		l0,0.5l0,0.3L196.3,201.2z"/>
</g>
<g>
	<path class="st0" d="M116.6,223.7l0,0.3l0.1,0.5l0,0.3l0,0.1l0,0.2l-0.1,0.1l-0.1,0.1l-0.2,0l-0.3,0h-0.3l-0.7-0.1l-0.3,0h-0.4
		l-0.3,0l-0.6-0.1l-0.1,0l-0.1-0.1l0-0.2l0-0.2l0-0.3l0-0.6v-1.6l-0.1-1.1v-0.3l0.1-1.1v-1.3l0-0.2l-0.1-0.1H113l-0.1,0.2l-0.2,0.2
		l-0.7,0.8l-1,1.2l-0.7,0.9l-0.2,0.1l-0.1,0.1h-0.1l-0.2,0l-0.2-0.1l-0.2-0.1l-0.9-1l-0.6-0.8l-0.2-0.2l-0.9-1l-0.2-0.2l-0.1,0
		l0,0.2l-0.1,1.1v0.3l0.1,1.1v0.3l0,1.1v0.3l0,1.1v0.3l0,0.5l0,0.3l0,0.3l0,0.2l-0.1,0.1l-0.1,0l-0.4,0.1l-0.3,0l-0.7-0.1l-0.3,0
		l-0.8,0.1h-0.4l-0.2,0l-0.1-0.1l0-0.1l0-0.2v-0.4l0-0.5v-2.6l0-0.9v-0.3l0-0.9l0-0.3l-0.1-0.9v-0.3l0.1-0.9l0-0.3l-0.1-0.9l0-0.3
		l0.1-0.9v-0.3l-0.1-0.6v-0.3l0-0.2l0.1-0.1l0.1-0.1l0.1,0l0.2,0l0.3,0l0.4,0.1h0.3l0.5-0.1l0.3,0l0.3,0l0.6,0h0.2l0.2,0.1l0.2,0.2
		l0.6,0.7l0.2,0.2l0.5,0.7l0.2,0.2l0.6,0.7l0.2,0.2l0.5,0.7l0.2,0.2l0.2,0.1h0.2l0.2-0.1l0.2-0.2l0.5-0.7l0.2-0.2l0.5-0.7l0.2-0.2
		l0.6-0.7l0.2-0.2l0.4-0.5l0.1-0.2l0.1-0.1l0.2-0.1l0.2,0l0.9,0.1l0.8,0h0.3l0.5,0l0.3,0l0.2,0l0.1,0l0.1,0.1l0,0.1l0,0.2l-0.1,0.8
		l0,0.3l0,0.9v0.3l0,0.9v0.3l0,0.9v0.3l0.1,0.9v0.3l-0.1,0.9v0.3l0.1,0.9v0.3l-0.1,0.9v0.3L116.6,223.7z"/>
	<path class="st0" d="M132.5,224.8l0.1,0.2l-0.1,0.2l-0.2,0.1l-0.2,0h-0.2l-0.4,0l-0.3,0h-0.8l-1.1,0.1l-0.2-0.1l-0.1-0.1l-0.1-0.2
		l-0.5-1.4l-0.1-0.2l-0.2,0l-0.2,0l-1-0.1h-0.3l-1.3,0l-1,0H124l-0.3,0H123l-0.2,0l-0.1,0.1l-0.1,0.2l-0.4,1.2L122,225l-0.2,0.2
		l-0.3,0.1h-0.3l-1-0.1H120l-1.1,0.1l-0.2,0l-0.2-0.1l-0.1-0.2l0-0.2l0-0.1l0.1-0.3l0.2-0.5l0.1-0.3l0.4-1l0.1-0.2l0.4-1l0.1-0.3
		l0.4-0.9l0.1-0.3l0.5-1l0.1-0.2l0.6-1.4l0.5-1l0.1-0.3l0.4-0.8l0.1-0.3l0.3-0.8l0.1-0.3l0.3-0.7l0.1-0.2l0.2-0.1l0.3-0.1l0.8,0h1.3
		l0.8,0l0.3,0.1l0.2,0.1l0.1,0.2l0.2,0.7l0.1,0.3l0.4,0.8l0.1,0.2l0.4,0.8l0.1,0.2l0.3,0.9l0.1,0.2l0.4,0.8l0.1,0.2l0.4,0.8l0.1,0.2
		l0.3,0.9l0.1,0.2l0.5,1.1l0.4,0.8l0.1,0.2l0.5,1.1L132.5,224.8z M126.8,220l-0.1-0.2l-0.4-1.2l-0.1-0.3l-0.3-1l-0.1-0.2l-0.2-0.1
		l-0.2-0.1l-0.2,0.1l-0.2,0.2l-0.5,1.2l-0.1,0.3l-0.4,1.1L124,220l0.1,0.2l0.2,0.1l0.2,0h1.1l0.8,0.1l0.2-0.1l0.1-0.1L126.8,220z"/>
	<path class="st0" d="M145.7,225.2l-0.2,0.1h-1.2l-0.9,0h-0.3l-0.8,0h-0.2l-0.2-0.1l-0.1-0.1l-0.5-0.8l-0.2-0.2l-0.5-0.7l-0.2-0.2
		l-0.5-0.8l-0.2-0.2l-0.5-0.7l-0.1-0.1l-0.1-0.1l-0.2,0l-0.5,0l-0.2,0l-0.1,0.1l-0.1,0.2l0,0.9l0,0.3l0.1,1l0,0.3l0,0.4v0.3l0,0.3
		l0,0.2l-0.1,0.1l-0.2,0.1h-0.3l-0.8-0.1l-0.8,0.1h-0.3l-0.8-0.1l-0.2,0l-0.1-0.1l0-0.2l0-0.2l0-0.3l0-0.4l0-0.3l0.1-0.9v-0.3
		l-0.1-0.9l0-0.3l0-0.9v-0.3l0.1-0.9V219l-0.1-0.9v-0.3l0.1-0.9v-0.3l0-0.9v-0.3l0-0.9v-0.3l0-0.6l0-0.3l0-0.1l0.1-0.2l0.1-0.1
		l0.2-0.1l0.1,0l0.3,0l0.8,0l2,0.1l1.2-0.1h0.3l1.1,0.1h0.6l0.3,0l0.3,0.1l0.4,0.1l0.3,0.1l0.3,0.1l0.3,0.1l0.3,0.1l0.2,0.1l0.3,0.2
		l0.2,0.2l0.2,0.2l0.2,0.2l0.2,0.3l0.2,0.2l0.2,0.3l0.1,0.2l0.1,0.3l0.1,0.3l0.1,0.3l0,0.3l0,0.4v0.3l0,0.3l0,0.3l-0.1,0.3l-0.1,0.3
		l-0.1,0.3l-0.1,0.3l-0.2,0.3l-0.2,0.2l-0.2,0.2l-0.2,0.2l-0.3,0.3l-0.2,0.2l-0.3,0.2l-0.2,0.1l-0.2,0.1l-0.2,0.1l-0.1,0.1l0.1,0.1
		l0.6,0.9l0.2,0.2l0.6,0.8l0.2,0.2l0.6,0.9l0.2,0.2l0.5,0.6l0.2,0.2l0.1,0.2L145.7,225.2z M140.9,218.6l0.2-0.1l0.2-0.1l0.2-0.2
		l0.1-0.3l0.1-0.3l0-0.3l0-0.3l0-0.3l-0.1-0.3l-0.1-0.3l-0.2-0.2l-0.2-0.2l-0.2-0.1l-0.4-0.1l-0.3,0l-0.9,0h-0.3l-0.9,0.1l-0.2,0
		l-0.1,0.1l-0.1,0.1l0,0.2l0,0.4l0,0.3l0,0.3l0,0.3l0,0.9l0,0.2l0,0.1l0.1,0.1l0.2,0l0.9,0.1h0.3l1.1-0.1L140.9,218.6z"/>
	<path class="st0" d="M158,223.7l-0.1,0.1l-0.3,0.3l-0.2,0.2l-0.3,0.2l-0.2,0.1l-0.3,0.2l-0.2,0.1l-0.4,0.2l-0.3,0.1l-0.3,0.1
		l-0.3,0.1l-0.4,0.1l-0.6,0.1l-0.3,0l-0.4,0h-0.9l-0.3,0l-0.3,0l-0.3-0.1l-0.3-0.1l-0.3-0.1l-0.8-0.2l-0.4-0.1l-0.2-0.1l-0.3-0.2
		l-0.2-0.2l-0.2-0.2l-0.2-0.2l-0.4-0.4l-0.2-0.2l-0.2-0.2l-0.2-0.3l-0.2-0.2l-0.1-0.2l-0.1-0.2l-0.2-0.4l-0.3-0.7l-0.1-0.3l-0.2-0.5
		l0-0.3l0-0.4l0-0.3l0-0.3v-0.3l0-0.6l0-0.3l0.1-0.3l0.1-0.4l0.1-0.3l0.1-0.3l0.1-0.2l0.1-0.3l0.1-0.2l0.1-0.3l0.1-0.3l0.2-0.3
		l0.2-0.2l0.2-0.2l0.2-0.2l0.2-0.2l0.2-0.2l0.2-0.2l0.2-0.2l0.5-0.4l0.2-0.1l0.2-0.1l0.5-0.2l0.3-0.1l0.3-0.1l0.6-0.1l0.3-0.1l0.3,0
		l0.5,0l0.4,0l0.3,0l0.4,0l0.6,0.1l0.2,0.1l0.4,0.1l0.6,0.2l0.2,0.1l0.4,0.2l0.2,0.1l0.4,0.3l0.5,0.4l0.2,0.1l0.1,0.1l0.1,0.1l0,0.1
		l0,0.1l-0.1,0.1l-0.2,0.2l-0.2,0.2l-0.2,0.2l-0.2,0.2l-0.2,0.2l-0.3,0.3l-0.2,0.2l-0.1,0.1l-0.2,0.1l-0.1,0.1l-0.1,0l-0.1,0
		l-0.2-0.1l-0.3-0.2l-0.2-0.1l-0.4-0.2l-0.2-0.1l-0.4-0.1l-0.3-0.1l-0.4,0H153l-0.4,0l-0.3,0.1L152,216l-0.3,0.1l-0.2,0.1l-0.3,0.2
		l-0.2,0.2l-0.1,0.1l-0.2,0.2l-0.2,0.2l-0.1,0.2l-0.1,0.2l-0.1,0.3l-0.1,0.3l-0.1,0.3l0,0.3l0,0.5v0.3l0,0.4l0,0.3l0.1,0.4l0.1,0.3
		l0.1,0.3l0.1,0.3l0.3,0.4l0.2,0.2l0.3,0.3l0.2,0.2l0.3,0.2l0.3,0.1l0.4,0.1l0.3,0.1l0.4,0h0.4l0.2-0.1l0.1,0l0.3-0.1l0.4-0.2
		l0.3-0.1l0.3-0.1l0.2-0.1l0.3-0.2l0.2-0.2l0.2-0.1l0.1,0l0.2,0l0.2,0.1l0.2,0.2l0.1,0.1l0.2,0.2l0.3,0.3l0.2,0.2l0.5,0.5l0.2,0.2
		l0.1,0.1l0.1,0.2V223.7z"/>
	<path class="st0" d="M170.9,223.7l0,0.3l0,0.4l0,0.3l0,0.2l-0.1,0.2l-0.1,0.1l-0.2,0l-0.3,0l-0.9-0.1h-0.3l-0.9,0.1h-0.3l-0.2-0.1
		l-0.1-0.1l0-0.2l-0.1-1.1l0-0.3l0-1.1v-0.3l0-1.1v-0.2l-0.1-0.1l-0.2-0.1h-0.4l-0.7,0.1l-0.3,0l-1.4,0l-0.9-0.1l-0.2,0l-0.2,0.1
		l-0.1,0.2l0,0.2l0,1.1v0.3l0,1.1l0,0.3l0.1,0.7v0.4l-0.1,0.2l-0.2,0.1l-0.2,0.1l-0.3,0l-0.3,0l-0.7-0.1l-0.3,0l-0.8,0.1l-0.3,0H160
		l-0.2,0l-0.1-0.1l-0.1-0.1l0-0.2l0-0.2v-0.3l0-0.5v-1.4l0-0.9v-0.3l0-0.9v-0.3l-0.1-0.9V219l0-0.9v-1.2l0-0.3l0.1-0.9l0-0.3l0-0.9
		l0-0.3l-0.1-0.6v-0.4l0.1-0.2l0.2-0.1l0.2-0.1l0.3,0h0.3l0.7,0h0.3l0.7-0.1h0.3l0.3,0l0.2,0l0.1,0.1l0.1,0.2l0,0.1v0.3l-0.1,0.8
		l0,0.3l0,1.1v1.4l0,0.2l0.1,0.1l0.1,0.1l0.2,0l0.2,0h0.2l0.6-0.1l0.3,0l1.1,0l1,0.1h0.3l0.1,0l0.2-0.1l0.1-0.1l0-0.2l0.1-1.1v-0.3
		l0-1.1v-0.3l0-1.1l0.1-0.3l0.1-0.2l0.2,0h0.3l0.9,0.1h0.3l0.8-0.1l0.3,0h0.2l0.2,0l0.1,0.1l0.1,0.2v0.3l-0.1,0.7l0,0.3l0.1,0.9v0.3
		l0,0.9v0.3l0.1,0.9v0.3l-0.1,0.9v0.3l0,0.9v0.3l0,0.9v0.3l0,0.9V223.7z"/>
</g>
<g class="st1">
	<path class="st2" d="M178,222l0,0.1l0,0.3v0.5l0,0.2l0,0.1l0,0.2l0,0.1l0,0.2l-0.1,0.2l-0.1,0.1l-0.1,0.2l-0.1,0.1l-0.1,0.1
		l-0.1,0.1l-0.1,0.1l-0.1,0.1l-0.1,0.1l-0.1,0.1l-0.2,0.1l-0.1,0.1l-0.2,0.1l-0.1,0l-0.2,0.1l-0.1,0l-0.2,0l-0.1,0l-0.1,0l-0.1,0
		l-0.2,0l-0.1,0l-0.2,0l-0.1,0l-0.4-0.1l-0.1,0l-0.2,0l-0.1,0l-0.2-0.1l-0.1-0.1l-0.1-0.1l-0.1-0.1l-0.1-0.1l-0.1-0.1l-0.1-0.1
		l-0.1-0.1l-0.1-0.1l-0.1-0.1l-0.1-0.1l0-0.1l-0.1-0.2l0-0.1l0-0.2l0-0.1l0-0.1l0-0.1l0-0.2l0-0.1l0-0.3v-0.3l0-0.2l0-0.1l0-0.2
		l0-0.1l0-0.2l0-0.1l0-0.2l0-0.1l0-0.1l0.1-0.1l0.1-0.2l0.1-0.1l0.1-0.1l0.1-0.1l0.1-0.1l0.1-0.1l0.2-0.1l0.1-0.1l0.3-0.1l0.2-0.1
		l0.1,0l0.1,0l0.1,0l0.2,0h0.1l0.4,0l0.1,0l0.2,0l0.1,0l0.3,0.1l0.1,0l0.1,0l0.1,0l0.1,0.1l0.2,0.1l0.1,0.1l0.1,0.1l0.1,0.1l0.1,0.2
		l0.1,0.1l0.1,0.2l0.1,0.1l0,0.1l0,0.1l0.1,0.2l0,0.1l0,0.1l0,0.1l0,0.2l0,0.1L178,222z M174.7,223.6l0.1,0.1l0.1,0.1l0.1,0.1l0,0
		l0.1,0l0.1,0l0.1,0h0.1l0.2,0l0.1,0l0.1,0l0.1-0.1l0,0l0.1-0.1l0.1-0.1l0.1-0.1l0.1-0.3l0-0.1l0-0.2l0-0.4v-0.1l0-0.2l0-0.1l0-0.2
		l0-0.1l0-0.1l0-0.1l-0.1-0.2l-0.1-0.1l-0.1-0.1L176,221l-0.1-0.1l-0.1,0l-0.1,0l-0.1,0l-0.1,0h-0.1l-0.1,0l-0.1,0l-0.1,0L175,221
		l-0.1,0.1l-0.1,0.1l-0.1,0.1l-0.1,0.1l0,0.1l0,0.1l0,0.1l0,0.2v0.1l0,0.2v0.1l0,0.2v0.1l0,0.2l0,0.1l0,0.1l0,0.1l0,0.1L174.7,223.6
		L174.7,223.6z"/>
	<path class="st2" d="M183.6,222.2l0,0.5l0,0.1v0.5l0,0.1l0,0.2l0,0.1l0,0.2l0,0.1l-0.1,0.2l-0.1,0.1l-0.1,0.1l-0.1,0.1l-0.1,0.1
		l-0.1,0.1l-0.1,0.1l-0.1,0.1l-0.1,0.1l-0.1,0.1l-0.2,0.1l-0.1,0l-0.1,0l-0.1,0l-0.2,0l-0.1,0l-0.3,0l-0.2,0H181l-0.1,0l-0.1,0
		l-0.3-0.1l-0.1,0l-0.2,0l-0.1,0l-0.1,0l-0.1,0l-0.1,0l-0.1-0.1l-0.1-0.1l-0.1-0.1l-0.1-0.1l-0.1-0.1l0-0.1l-0.1-0.1l-0.1-0.2l0-0.1
		l0-0.1l0-0.2v0l0-0.1l0-0.1l0,0l0.1,0l0.2,0l0.1,0l0.4,0l0.3,0h0.1l0.1,0l0.1,0l0.1,0.1l0,0.1l0,0.1l0.1,0.1l0.1,0l0.1,0.1l0.1,0
		l0.1,0l0.1,0l0.2,0l0.1,0l0.1,0l0.1,0l0.1,0l0.1-0.1l0.1-0.1l0.1-0.1l0.1-0.1l0.1-0.1l0-0.1v0l0-0.1l0-0.1l0-0.1l-0.1-0.1l-0.1,0
		l0,0l-0.1,0l-0.1,0.1l-0.1,0l-0.2,0.1l-0.1,0l-0.2,0l-0.1,0l-0.5,0l-0.1,0l-0.2,0l-0.1,0l-0.1,0l-0.1,0l-0.2-0.1l-0.1-0.1l-0.2-0.1
		l-0.1-0.1l-0.1-0.1l-0.1-0.1l-0.1-0.2l-0.1-0.1l-0.1-0.2l0-0.2l0-0.1l0-0.2v-0.1l0-0.2l0-0.1l0-0.1l0-0.1l0.1-0.2l0.1-0.1l0.1-0.1
		l0.1-0.1l0.1-0.1l0.1-0.1l0.1-0.1l0.1-0.1l0.1-0.1l0.1-0.1l0.2-0.1l0.1,0l0.2,0l0.3-0.1l0.2,0l0.1,0l0.2,0h0.1l0.2,0l0.1,0l0.2,0
		l0.1,0l0.2,0l0.3,0.1l0.1,0l0.1,0.1l0.1,0.1l0.2,0.1l0.1,0.1l0.1,0.1l0.1,0.1l0.1,0.1l0.1,0.1l0.1,0.1l0.1,0.1l0.1,0.2l0,0.1l0,0.1
		l0,0.1l0,0.2l0,0.1V222.2z M181.9,221.5l0-0.1l0-0.1l0-0.1l-0.1-0.1l-0.1-0.1l0,0l-0.1-0.1l-0.1,0l-0.1,0l-0.1,0l-0.2,0l-0.1,0
		l-0.2,0l-0.1,0l-0.1,0l-0.1,0l-0.1,0.1l-0.1,0.1l-0.1,0.1l0,0l0,0.2l0,0.1l0,0.1l0,0.1l0.1,0.1l0.1,0.1l0.1,0.1l0.2,0.1l0.1,0
		l0.2,0h0.1l0.2,0l0.1,0l0.1,0l0.1-0.1l0.1-0.1l0.1-0.1l0-0.1L181.9,221.5L181.9,221.5z"/>
	<path class="st2" d="M188.8,223.8L188.8,223.8L188.8,223.8l0.2,0.1l0.3,0h0.6l0.4,0h0.1l0.9,0l0.1,0l0.3,0h0.1l0.1,0l0,0.1l0,0.1
		l0,0.1l0,0.1v0.3l0,0.2l0,0.1l0,0.1l0,0.1l0,0l0,0l-0.2,0l-0.1,0l-0.2,0l-0.1,0l-0.6,0h-0.4l-0.7,0h-1.1l-0.6,0l-0.4,0l-0.1,0
		l-0.1,0l0,0l0-0.1l0-0.5v-0.1l0-0.5l0-0.1l0-0.2l0-0.2l0-0.1l0-0.1l0-0.1l0-0.1l0.1-0.1l0.1-0.1l0.1-0.1l0.1-0.1l0.1-0.1l0.1-0.1
		l0.2-0.1l0.1-0.1l0.2-0.1l0.1,0l0.2-0.1l0.1,0l0.1,0l0.1,0l0.4,0l0.1,0l0.1,0l0.2,0l0.1,0l0.1,0l0.1-0.1l0.1-0.1l0.1-0.1l0-0.2
		v-0.2l0-0.1l0-0.1l0-0.1l-0.1-0.1l-0.1,0l-0.2,0l-0.1,0l-0.1,0h-0.1l-0.1,0l-0.1,0l-0.2,0.1l-0.1,0.1l0,0l-0.1,0.1l0,0l-0.1,0.1
		l0,0.1l-0.1,0l-0.1,0h-0.1l-0.1,0l-0.3,0H188l-0.1,0l-0.2,0l-0.1,0l-0.1,0l0,0v-0.1l0-0.1l0-0.1l0-0.1l0-0.1l0-0.1l0.1-0.1l0.1-0.1
		l0.1-0.1l0.1-0.1l0.1-0.1l0.1-0.1l0.1-0.1l0.1-0.1l0.2-0.1l0.1-0.1l0.1,0l0.2,0l0.1,0l0.1,0l0.1,0l0.2,0l0.1,0h0.3l0.2,0h0.1l0.1,0
		l0.1,0l0.2,0l0.1,0l0.2,0.1l0.1,0l0.1,0l0.2,0.1l0.1,0.1l0.1,0.1l0.1,0.1l0.1,0.1l0.1,0.1l0.1,0.1l0.1,0.1l0.1,0.1l0,0.1l0,0.1
		l0,0.1l0,0.2v0.1l0,0.2l0,0.1l0,0.2l0,0.1l0,0.1l-0.1,0.1l-0.1,0.1l-0.1,0.1l-0.1,0.1l-0.1,0.1l-0.1,0.1l-0.1,0.1l-0.2,0.1l-0.1,0
		l-0.1,0l-0.1,0l-0.1,0l-0.1,0l-0.2,0l-0.1,0l-0.1,0l-0.1,0l-0.2,0l-0.1,0h-0.1l-0.1,0h-0.1l-0.1,0l-0.1,0l-0.1,0.1l0,0l-0.1,0.1
		l-0.1,0.1l0,0.1l0,0.1L188.8,223.8L188.8,223.8z"/>
	<path class="st2" d="M197.3,223.4v0.1l0,0.1l0,0.1l0,0.2l0,0.1l-0.1,0.2l-0.1,0.1l-0.1,0.1l-0.2,0.2l-0.1,0.1l-0.2,0.2l-0.1,0.1
		l-0.1,0.1l-0.1,0.1l-0.1,0.1l-0.2,0.1l-0.1,0l-0.1,0l-0.1,0l-0.2,0l-0.1,0l-0.2,0H195l-0.2,0l-0.1,0l-0.1,0l-0.2,0l-0.1,0l-0.2,0
		l-0.1,0l-0.1,0l-0.1-0.1l-0.2-0.1l-0.1-0.1l-0.1-0.1l-0.1-0.1l-0.1-0.1l-0.1-0.1l-0.1-0.1l-0.1-0.1l-0.1-0.2l0-0.1l0-0.2l0-0.1
		l0-0.1l0-0.1l0.1-0.1l0.1,0l0.2,0l0.4,0h0.1l0.3,0h0.2l0.1,0l0.1,0l0,0.1l0,0.1l0.1,0.1l0.1,0.1l0.1,0.1l0.1,0l0.1,0l0.2,0h0.1
		l0.2,0l0.1,0l0.1-0.1l0.1-0.1l0.1-0.1l0.1-0.1l0-0.1l0-0.1l0-0.1l0,0l-0.1-0.1l-0.1-0.1l-0.1-0.1l-0.1-0.1l-0.1,0l-0.2,0l-0.1,0
		l-0.2,0l-0.2,0l-0.5,0h-0.1l-0.9,0l-0.1,0l-0.1-0.1l0-0.1l0-0.5V222l0-0.5v-0.1l0-0.5v-0.1l0-0.5l0-0.1l0-0.3l0-0.1l0-0.1l0-0.1
		l0.1-0.1l0.1,0h0.2l0.3,0h0.1l0.4,0l0.1,0l0.4,0l0.7,0l0.4,0h0.7l0.2,0l0.2,0l0.1,0l0.1,0l0,0l0,0.1l0,0.1l0,0.1l0,0.2v0.2l0,0.1
		l0,0.1l0,0.1l-0.1,0.1l-0.1,0l-0.1,0h-0.1l-0.3,0h-0.1l-0.6,0h-0.5l-0.4,0h-0.1l-0.1,0l-0.1,0l-0.1,0.1l0,0.1l0,0.2l0,0.1l0,0.1
		l0.1,0.1l0.1,0l0.4,0h0.1l0.2,0l0.2,0l0.1,0l0.2,0l0.2,0l0.1,0l0.2,0.1l0.1,0.1l0.1,0.1l0.1,0.1l0.2,0.2l0.1,0.1l0.1,0.1l0.1,0.1
		l0,0.1l0.1,0.2l0,0.1l0,0.2l0,0.1L197.3,223.4z"/>
</g>
<g>
	<path class="st3" d="M122.9,124.4c0.2,2.2-0.1,6.5,2.1,10c2.2,3.5,5.8,9.3,5.6,11.3c-0.2,2-6.7,31.6-8,34.5c0,0,14.1,7.2,24.7,7.9
		c10.7,0.7,14.7-0.7,18.9-4.9c0,0,3.6-20.5,4.7-23.7c1-3.2,4.1-8.5,6.5-11.1c2.4-2.6,5.1-6.7,5.7-12.4c0.6-5.7,0.8-12.5,1.6-15.7
		c0.8-3.2,2.3-8.3,1.1-9.5c-1.2-1.2-6.1-11.2-7-13c-0.8-1.8-4.7-2.6-7.9-2.6c-0.5-2.3-1.8-6.9-4.7-7.6c-2.8-0.7-5.9-0.6-8.1-1
		c-1.2-2-4.8-5.2-6.2-6.6c-2.8,0.2-6.1,0-6.1,0l-5-4.5c-1.8,0.8-8.4,1.6-9.6,1.9c-1.6,0.6-6,7.4-6.3,9.1c-1.6,1.3-5,5.5-5.3,5.8
		c-0.5,1.8-0.5,9.2-1,11.3c-0.7,2.6-2.4,7.4,0,10.8C121.1,118.1,122.7,122.2,122.9,124.4 M128.7,83.5c-0.5,1.2,2.4,0.9,2.5,1.4
		c0.1,0.5-2.3,0.1-3.8,1.2c-1.3,0.9-0.8,0.3-0.6-0.6c0.2-0.9,1.8-2.8,1.8-2.8c1.2-1.5,1-2.2,2.4-1.4
		C132.4,81.9,129.2,82.3,128.7,83.5 M141.3,78.3c1.9,1.2,1.9,2,1.4,2.7c0.4-0.2-0.2,0.2-0.2,0.2c0.1-0.1,0.1-0.1,0.2-0.2
		c-0.2,0.1-0.6,0.4-1.5,0.9c-2.6,1.7-2.8-2.6-5.1-1.3c-2.3,1.2-2.9,0.7-3.4-0.1c-0.5-0.9-2-0.6-1.4-1.4c0.7-0.8,1-0.1,3.6-0.7
		C137.6,77.7,139.2,77,141.3,78.3 M155.5,85.5c0.8,0.9-0.7,0.7-1.8,1.3c-1.1,0.7-0.6,3.5-1.5,7.7c-0.9,4.2-1.6,14-3,14.8
		c-1.4,0.7-2.2,0.1-2.1-1c0.1-1.1,1.4-0.6,1.7-1.7c0.3-1.1,2.4-16.8,2.5-18.3c0.1-1.5-4.1-1.8-4.1-2.9c-0.1-1.1-1.3-2.4-2.2-2.1
		c-0.9,0.3-1.4-0.9,0.4-1.6c1.8-0.7,4.9-0.7,6.1,0C152.6,82.4,153.6,83.6,155.5,85.5 M169,95.5c0.3,0.8-2.6-0.3-3.6,0.3
		c-1.1,0.7-0.8,3.2-1.6,6.8c-0.8,3.7-3.2,11.1-4.7,13.2c-1.5,2-3.9,2-4.1,1.6c-0.2-0.4,7.1-18.2,8.6-21.5c1.5-3.3,0.2-3.8-1-4.8
		c-1.2-1-3.2,0.4-5.5,0.5c-2.3,0.1-2.7-3.9-1.1-3.9c1.6,0,7.9,0.4,9.5,0.8C166.9,89,168.1,93,169,95.5 M157.2,162.7
		c0.8-1.5-7.3-4.5-7.4-6.6c-0.1-2.2,9,2.7,12.3,0.8c3.2-1.9-6.6-2.8-4.9-4.2c1.8-1.4,6.1-1.1,6.9-3c0.8-1.9-5-3.8-1.9-3.8
		c3.1,0,6.5-0.7,5-2c-1.5-1.4-13.9-10.5-11.3-13c2.6-2.4,4.5-4.9,7-2.8c2.5,2,4.7,4.3,4.7,0.5c0-3.8,4.1-4.7,7.7-2.2
		c3.6,2.6,5.7-0.2,1.9-2.5c-3.8-2.3,4.1-10.7,3.9-12.6c-0.1-1.9-3.1,0.7-4.3,0c-1.2-0.7,0.7-7.1,0-6.5c-6.1,4.9-6.5,16.7-14,16.6
		c0.6-2.8,3.2-0.1,4.7-7.2c1.5-7,3.1-4,4.1-6c0.9-2.1,2.3-5,2-6.6c-0.3-1.6-4.2-0.5-5.5-1.1c-1.4-0.5-2.4-2.8-1.2-3.1
		c1.2-0.3,8.9-1.1,10.5,0.9c1.6,2,6.9,13.6,7,14.6c0,0,0,0,0,0l0-0.3c0,0.1,0,0.1,0,0.2l0,0.1c0,0,0,0.5,0,0.5
		c-0.6,4-1.9,13.4-2.7,18.5c-0.5,3,0,5-4.2,12.7c-1.9,3.5-4.7,7.8-8.3,9.5c-6.5,3.1,0.7,0.8-0.5,4.1c-1.2,3.2-1.2,3.2-1.3,7.2
		l-3.1,17.4c-1.7,0.9-3.9,1.1-5.5-3.4c-1.4-3.7-2.2-6-3.3-3.2c-1.1,2.8-2,8-3.7,5.2c-1.8-3-0.9-7.6,2.6-9.5c3.5-1.9,4.9-3,4-4.6
		C157.4,165.8,156.3,164.2,157.2,162.7 M137.3,125.4c-1.5-1.6-6.1-7.1-5.9-9.1c0.2-2,1.1-8,4.8-8c3.6,0,7.8,3.3,8.7,5.6
		c0.9,2.2,0.2,3.4,1.3,4.4c1.2,0.9,3.5,1.7,4.6,3.7c1.1,2,0.9,3.9,0.7,7.5c-0.3,3.5-1.1,8.1-2.5,9c-1.4,0.9-4.2,1.1-4.2,1.1
		c-4.1,0.5-4.1-2-4.8-3.4C139.5,134.8,138.9,127.1,137.3,125.4 M135,105.6c-1.2,2.2-8,7.4-10.3,9c-2.3,1.6-0.2-2.7,1.6-5.3
		c1.8-2.5,0.9-2.8-1-2.6c-1.9,0.2-0.1-1.7,1.5-3.3c1.6-1.6-0.4-3-1.4-4.3c-1-1.2-2.8-1.4,0.8-2.5c3.6-1.1,0.6,1.1,3,1.4
		c2.4,0.3,1.5-1.9,2.4-2.4c6.9,1.6,8.5-0.8,10.8-3.1c2.3-2.3,1.5-7,1.5-7s-2.1,0.5-5.8,1.1c-3.6,0.6-1.4,1.2-2.2,2.4
		c-0.8,1.2-2,0.9-2.8,0.3c-0.8-0.6-1.2-2.6-1.9-0.4c-0.7,2.2-1.1,0.4-4.3,0.7c-3.1,0.3-2.8-0.6-2.4-1.2c0.4-0.6,4.8-2.2,4.8-2.2
		l15.5-2.2c0,0,1-0.5,1.3,2.1c1.2,7.9-6.1,11.1-11.3,11.9C134.8,98,136.1,103.4,135,105.6"/>
</g>
<path class="st4" d="M180.8,99.4H203c2.9,0,5.3,2.4,5.3,5.3v126c0,2.9-2.4,5.3-5.3,5.3H95.6c-2.9,0-5.3-2.4-5.3-5.3v-126
	c0-2.9,2.4-5.3,5.3-5.3h22.3"/>
</svg>
