<?xml version="1.0" encoding="utf-8"?>
<!-- Generator: Adobe Illustrator 21.0.2, SVG Export Plug-In . SVG Version: 6.00 Build 0)  -->
<svg version="1.1" id="Layer_1" xmlns="http://www.w3.org/2000/svg" xmlns:xlink="http://www.w3.org/1999/xlink" x="0px" y="0px"
	 viewBox="0 0 119 161" style="enable-background:new 0 0 119 161;" xml:space="preserve">
<style type="text/css">
	.st0{fill:#D8D20B;}
	.st1{opacity:0.38;}
	.st2{fill:#FFFDFD;}
	.st3{fill:#F74608;}
	.st4{fill:none;stroke:#FFFFFF;stroke-miterlimit:10;}
</style>
<g>
	<path class="st0" d="M24,127.4v0.3v0.3v0.3l-0.1,0.4l-0.1,0.3l-0.1,0.3l-0.1,0.2l-0.2,0.3l-0.2,0.2l-0.2,0.3l-0.2,0.2l-0.2,0.2
		l-0.2,0.2l-0.2,0.2l-0.2,0.2l-0.4,0.2l-0.3,0.1l-0.3,0.1l-0.3,0.1l-0.4,0.1L20,132h-0.3h-0.3H19h-1.4h-0.3H17h-0.3h-0.2l-0.1,0.1
		v0.2l-0.1,1.1v0.3v0.5v0.3v0.4v0.2l-0.1,0.1h-0.1h-0.2h-0.5h-0.7h-0.3h-0.5h-0.3h-0.4l-0.2-0.1l-0.1-0.1v-0.2v-0.3v-0.3v-1.8
		l0.1-0.9v-0.3l-0.1-0.9V130v-2.1v-0.3l0.1-0.9v-0.3l-0.1-0.9v0l0.1-0.9v-0.3v-0.5v-0.3v-0.1v-0.2l0.1-0.1l0.1-0.1h0.2h0.5h0.4h0.3
		h1.1h1.1l1.1,0.1H19h0.6h0.2h0.1l0.3,0.1l0.4,0.1l0.3,0.1l0.3,0.1l0.3,0.1l0.3,0.2L22,124l0.3,0.3l0.2,0.2l0.1,0.1l0.3,0.3l0.2,0.2
		l0.1,0.1l0.1,0.2l0.1,0.1l0.1,0.2l0.1,0.3l0.1,0.2v0.1l0.1,0.2v0.1l0.1,0.2L24,127.4C24,127.3,24,127.4,24,127.4z M20.5,127.7v-0.4
		l-0.1-0.3l-0.1-0.1l-0.1-0.2l-0.1-0.1l-0.2-0.2l-0.1-0.1l-0.3-0.1l-0.4-0.1h-0.3h-0.4h-0.5l-0.8-0.1h-0.3h-0.1h-0.2l-0.1,0.1
		l-0.1,0.1v0.2v0.4l0.1,0.6v0.3v1v0.2l0.1,0.1l0.2,0.1l0.9,0.1l1.2-0.1h0.3l0.3-0.1l0.1-0.1l0.2-0.1l0.1-0.1l0.2-0.2l0.1-0.1
		l0.1-0.2l0.1-0.1l0.1-0.3L20.5,127.7z"/>
	<path class="st0" d="M35.2,134.6v0.3v0.2l-0.1,0.2l-0.1,0.1l-0.1,0.1h-0.2h-0.1h-0.2l-1.9-0.1h-1.3l-1.5,0.1l-1-0.1h-1.3l-0.8,0.1
		h-0.3h-0.2h-0.2l-0.1-0.1l-0.1-0.1v-0.2v-0.3l0.1-0.6v-0.3l-0.1-0.9v-0.3v-0.9v-0.3v-2.1v-0.3l-0.1-2.1v-0.3v-0.9v-1.5v-0.5v-0.3
		v-0.2l0.1-0.2l0.1-0.1l0.1-0.1h0.2h0.1h0.3l0.8,0.1h0.3h1.2H29l0.1,0.1l0.1,0.1v1.5v1v0.3l-0.1,1v0.3v1v0.3l0.1,1v0.3l-0.1,2.3v0.2
		v0.1v0.1l0.1,0.1h0.2H30h0.5h0.3h2.5h0.3l0.6-0.1h0.3h0.3l0.2,0.1l0.1,0.1l0.1,0.1v0.2v1v0.3L35.2,134.6z"/>
	<path class="st0" d="M47,133.8v0.3l-0.1,0.9v0.2l-0.1,0.1l-0.1,0.1l-2.2,0.1h-0.3l-0.9-0.1H43l-0.9,0.1h-0.3h-1.2l-0.9-0.1h-0.3
		l-1.5,0.1h-0.6h-0.2l-0.1-0.1l-0.1-0.1v-0.2v-0.4v-0.3v-0.3v-0.3l0.1-0.9v-0.3v-0.9v-0.3l-0.1-0.9v-0.3v-0.9v-1.5l0.1-0.9v-0.3
		l-0.1-0.9v-0.3V125v-0.5v-0.3l0.1-0.9v-0.2l0.1-0.1l0.1-0.1h0.1h0.2l1.1,0.1h1h0.3l1,0.1h0.3l1-0.1h0.3h2.3h0.3l0.6-0.1h0.4
		l0.2,0.1l0.1,0.1v0.1v0.2v0.5v0.4v0.3v0.4v0.3v0.3v0.2l-0.1,0.1l-0.1,0.1H46h0.2h-0.3h-1.6H44h-0.9h-0.3h-0.9l-0.8-0.1h-0.3h-0.1
		h-0.2l-0.1,0.1v0.1v0.2v0.4v0.3v0.3v0.2v0.1l0.1,0.1l0.2,0.1h0.5h0.5h1.6l1.9-0.1h0.5h0.2l0.1,0.1l0.1,0.1v0.2v0.3v0.3v0.6v0.4v0.5
		v0.2l-0.1,0.1l-0.1,0.1h-0.2h-0.3l-0.8-0.1h-0.3l-1.4,0.1h-1.1h-0.3l-0.3-0.1h-0.3h-0.2l-0.1,0.1l-0.1,0.1v0.3l-0.1,0.4v0.3v0.4
		v0.2l0.1,0.1l0.1,0.1h0.2h0.9H42l0.9-0.1l1.2,0.1h0.3l1.2-0.1h0.3h0.3l0.6,0.1l0.1,0.1l0.1,0.1v0.2V133.8z"/>
	<path class="st0" d="M60.2,131.6v0.3v0.4l-0.1,0.3L60,133l-0.1,0.2l-0.2,0.3l-0.2,0.2l-0.3,0.3l-0.2,0.2l-0.4,0.3l-0.2,0.2
		l-0.2,0.1l-0.3,0.1l-0.3,0.1l-0.3,0.1l-0.8,0.2l-0.4,0.1h-0.3h-0.4h-0.3h-0.9h-1.5l-1-0.1h-0.3h-1.2h-0.6h-0.3h-0.2l-0.1-0.1
		l-0.1-0.1v-0.2v-0.3v-0.2v-0.3V134v-0.3l0.1-0.9v-0.3v-0.4v-0.3v-0.2v-0.3v-0.4v-0.7l0.1-0.9V129v-0.9v-0.3v-0.9v-0.3l0.1-0.9v-0.3
		l-0.1-0.9v-0.3l-0.1-0.5v-0.4l0.1-0.2l0.2-0.1l0.2-0.1h0.3h0.9h0.9l1.5,0.1H54h0.3h0.9h0.3l1,0.1h0.3l0.3,0.1l0.3,0.1l0.4,0.1
		l0.3,0.1l0.3,0.2l0.2,0.2l0.3,0.2l0.2,0.2l0.2,0.2l0.1,0.2l0.2,0.3l0.1,0.2l0.1,0.3l0.1,0.3l0.1,0.4v0.3v0.3l-0.1,0.3l-0.1,0.4
		l-0.1,0.3l-0.2,0.3l-0.2,0.2l-0.4,0.4l-0.1,0.1l0.1,0.1l0.2,0.2l0.2,0.2l0.2,0.2l0.1,0.1l0.2,0.2l0.2,0.3l0.1,0.3l0.1,0.2l0.1,0.3
		l0.1,0.3v0.3L60.2,131.6z M52.4,127.1v0.3v0.2l0.1,0.1l0.1,0.1h0.2h0.4h0.6h0.3h0.4h0.6h0.4l0.2-0.1l0.2-0.1l0.2-0.1l0.1-0.2
		l0.1-0.2l0.1-0.2v-0.3l-0.1-0.2l-0.2-0.2l-0.2-0.2l-0.1-0.1l-0.3-0.1h-0.1h-0.3h-0.2h-0.3h-0.4h-0.3l-0.8,0.1h-0.2h-0.2h-0.2
		l-0.1,0.1l-0.1,0.1l-0.1,0.2l-0.1,0.4v0.3L52.4,127.1z M56.7,131.6v-0.2l-0.1-0.2l-0.1-0.2l-0.1-0.1l-0.2-0.2l-0.3-0.2l-0.3-0.1
		h-0.1h-0.2h-0.8h-0.3h-1h-0.3h-0.1h-0.2l-0.2,0.1l-0.1,0.1v0.2v0.4v0.3v0.3v0.4v0.3v0.2l0.1,0.1l0.1,0.1h0.2H54h1.1h0.6H56l0.2-0.1
		l0.1-0.1l0.1-0.1l0.1-0.3l0.1-0.3L56.7,131.6z"/>
	<path class="st0" d="M71.8,133.8v0.3l-0.1,0.9v0.2l-0.1,0.1l-0.1,0.1l-2.2,0.1H69l-0.9-0.1h-0.3l-0.9,0.1h-0.3h-1.2l-0.9-0.1h-0.3
		l-1.5,0.1h-0.6h-0.2l-0.1-0.1l-0.1-0.1v-0.2v-0.4v-0.3v-0.3v-0.3l0.1-0.9v-0.3v-0.9v-0.3l-0.1-0.9v-0.3v-0.9v-1.5l0.1-0.9v-0.3
		l-0.1-0.9v-0.3V125v-0.5v-0.3l0.1-0.9v-0.2l0.1-0.1l0.1-0.1h0.1h0.2l1.1,0.1h1h0.3l1,0.1H66l1-0.1h0.3h2.3h0.3l0.6-0.1h0.4l0.2,0.1
		l0.1,0.1v0.1v0.2v0.5v0.4v0.3v0.4v0.3v0.3v0.2l-0.1,0.1L71,126h-0.2h-0.1h-0.3h-1.6h-0.3h-0.9h-0.3h-0.9l-0.8-0.1h-0.3h-0.1H65
		l-0.1,0.1v0.1v0.2v0.4v0.3v0.3v0.2v0.1l0.1,0.1l0.2,0.1h0.5h0.5h1.6l1.9-0.1h0.5h0.2l0.1,0.1l0.1,0.1v0.2v0.3v0.3v0.6v0.4v0.5v0.2
		l-0.1,0.1l-0.1,0.1h-0.2h-0.3l-0.8-0.1h-0.3l-1.4,0.1h-1.1H66l-0.7-0.1H65h-0.2l-0.1,0.1l-0.1,0.1v0.3l-0.1,0.4v0.3v0.4v0.2
		l0.1,0.1l0.1,0.1h0.2h0.9h0.3l0.9-0.1l1.2,0.1h0.3l1.2-0.1H70h0.3l0.6,0.1l0.1,0.1l0.1,0.1v0.2L71.8,133.8z"/>
	<path class="st0" d="M77.3,132.7v0.3l-0.1,0.9v0.3v0.9v0.2l-0.1,0.1H77h-0.2h-0.9h-1.1l-0.9-0.1h-0.1l-0.1-0.1V135v-0.4v-0.3V134
		v-0.3l-0.1-0.9v-0.3l0.1-0.9v-0.3l-0.1-0.9v-0.3v-0.9v-1.5v-0.9v-0.3v-0.9v-1.5v-0.9l0.1-0.2l0.1-0.1H74h0.1h0.3h0.4h0.3h0.8H77
		h0.2v0.1v0.2v0.4v0.3v1.7v0.9v0.3v0.9v0.3v0.9v0.3v0.9v1.5L77.3,132.7z"/>
	<path class="st0" d="M93.1,134.9l0.1,0.2l-0.1,0.2l-0.2,0.1h-0.2h-0.2h-0.4h-0.3H91l-1.1,0.1l-0.2-0.1l-0.1-0.1l-0.1-0.2l-0.5-1.4
		l-0.1-0.2h-0.2h-0.2l-1-0.1h-0.3h-1.3h-1h-0.3h-0.3h-0.8h-0.2l-0.1,0.1l-0.1,0.2l-0.4,1.2l-0.1,0.3l-0.2,0.2l-0.3,0.1h-0.3l-1-0.1
		h-0.3l-1.1,0.1h-0.2l-0.2-0.1l-0.1-0.2V135v-0.1l0.1-0.3l0.2-0.5l0.1-0.3l0.4-1l0.1-0.2l0.4-1l0.1-0.3l0.4-0.9l0.1-0.3l0.5-1
		l0.1-0.2l0.6-1.4l0.5-1l0.1-0.3l0.4-0.8l0.1-0.3l0.3-0.8l0.1-0.3l0.3-0.7l0.1-0.2l0.2-0.1l0.3-0.1h0.8h1.3h0.8l0.3,0.1l0.2,0.1
		l0.1,0.2l0.2,0.7l0.1,0.3l0.4,0.8l0.1,0.2l0.4,0.8l0.1,0.2l0.3,0.9l0.1,0.2l0.4,0.8l0.1,0.2l0.4,0.8l0.1,0.2l0.3,0.9l0.1,0.2
		l0.5,1.1l0.4,0.8l0.1,0.2l0.5,1.1L93.1,134.9z M87.4,130.1l-0.1-0.2l-0.4-1.2l-0.1-0.3l-0.3-1l-0.1-0.2l-0.2-0.1L86,127l-0.2,0.1
		l-0.2,0.2l-0.5,1.2l-0.1,0.3l-0.4,1.1l-0.1,0.3l0.1,0.2l0.2,0.1H85h1.1l0.8,0.1l0.2-0.1l0.1-0.1L87.4,130.1z"/>
	<path class="st0" d="M106.5,125.7v0.3v2.5l0.1,1v0.3v2.3v0.3v0.1v0.3l-0.1,0.8v1v0.2l-0.1,0.2l-0.1,0.2l-0.2,0.1l-0.2,0.1h-0.2
		h-0.9h-0.3h-0.4h-0.3l-0.2-0.1l-0.2-0.1l-0.2-0.2l-0.2-0.2l-0.3-0.5l-0.2-0.2l-0.7-0.8l-0.2-0.2l-0.7-0.8l-0.2-0.2l-0.6-0.9
		l-0.2-0.2l-0.7-0.8L99,130l-0.6-0.8l-0.2-0.1l-0.1,0.1l-0.1,0.2v0.9v0.3v0.9v0.3v1v0.3l-0.1,1v0.3l0.1,0.7v0.3l-0.1,0.2l-0.1,0.1
		h-0.1h-0.2h-0.1h-0.3h-0.8H96h-0.7H95h-0.3h-0.2l-0.1-0.1l-0.1-0.1v-0.2v-0.1v-0.3v-0.6V134l-0.1-0.9v-0.3v-2.1v-0.3l0.1-0.9v-0.3
		V128l-0.1-0.9v-0.3l0.1-0.9v-0.3l-0.1-0.9v-0.3V124v-0.3v-0.3v-0.2l0.1-0.1l0.1-0.1h0.2h0.5h0.5h1.3h0.2l0.1,0.1l0.1,0.2l0.7,0.8
		l0.2,0.2l0.6,0.8l0.2,0.2l0.6,0.8l0.2,0.2l0.6,0.9l0.2,0.2l0.6,0.8l0.2,0.2l0.6,0.9l0.1,0.1h0.1l0.1-0.1v-0.2l-0.1-0.7v-0.3
		l0.1-0.7v-0.3l-0.1-1v-0.3l0.1-1v-0.3l-0.1-0.6v-0.4l0.1-0.2l0.1-0.1l0.1-0.1h0.2h0.2h0.3l0.8,0.1h0.3h0.6h0.3h0.4h0.2l0.1,0.1
		l0.1,0.1v0.2v0.2v0.3v0.5v0.3L106.5,125.7z"/>
</g>
<g>
	<path class="st0" d="M26.8,148.2v0.3l0.1,0.5v0.3v0.1v0.2l-0.1,0.1l-0.1,0.1h-0.2h-0.3h-0.3l-0.7-0.1h-0.3h-0.4h-0.3l-0.6-0.1h-0.1
		l-0.1-0.1v-0.2v-0.2v-0.3v-0.6v-1.6l-0.1-1.1v-0.3l0.1-1.1v-1.3v-0.2l-0.1-0.1h-0.1l-0.1,0.2l-0.2,0.2l-0.7,0.8l-1,1.2l-0.7,0.9
		l-0.2,0.1l-0.1,0.1h-0.1h-0.2l-0.2-0.1l-0.2-0.1l-0.9-1L18,144l-0.2-0.2l-0.9-1l-0.2-0.2h-0.1v0.2l-0.1,1.1v0.3l0.1,1.1v0.3v1.1
		v0.3v1.1v0.3v0.5v0.3v0.3v0.2l-0.1,0.1h-0.1l-0.4,0.1h-0.3l-0.7-0.1h-0.3l-0.8,0.1h-0.4h-0.2l-0.1-0.1v-0.1v-0.2v-0.4v-0.5V146
		v-0.9v-0.3v-0.9v-0.3l-0.1-0.9v-0.3l0.1-0.9v-0.3l-0.1-0.9V140l0.1-0.9v-0.3l-0.1-0.6v-0.3v-0.2l0.1-0.1l0.1-0.1h0.1h0.2h0.3
		l0.4,0.1h0.3l0.5-0.1h0.3h0.3h0.6h0.2l0.2,0.1l0.2,0.2l0.6,0.7l0.2,0.2l0.5,0.7l0.2,0.2l0.6,0.7l0.2,0.2l0.5,0.7l0.2,0.2l0.2,0.1
		h0.2l0.2-0.1l0.2-0.2l0.5-0.7l0.2-0.2l0.5-0.7l0.2-0.2l0.6-0.7l0.2-0.2l0.4-0.5l0.1-0.2l0.1-0.1l0.2-0.1h0.2l0.9,0.1h0.8h0.3h0.5
		h0.3h0.2H27l0.1,0.1v0.1v0.2l-0.1,0.8v0.3v0.9v0.3v0.9v0.3v0.9v0.3l0.1,0.9v0.3l-0.1,0.9v0.3l0.1,0.9v0.3l-0.1,0.9v0.3L26.8,148.2z
		"/>
	<path class="st0" d="M42.7,149.3l0.1,0.2l-0.1,0.2l-0.2,0.1h-0.2h-0.2h-0.4h-0.3h-0.8l-1.1,0.1l-0.2-0.1l-0.1-0.1l-0.1-0.2
		l-0.5-1.4l-0.1-0.2h-0.2h-0.2l-1-0.1h-0.3h-1.3h-1h-0.3h-0.3h-0.7H33l-0.1,0.1l-0.1,0.2l-0.4,1.2l-0.2,0.2l-0.2,0.2l-0.3,0.1h-0.3
		l-1-0.1h-0.2l-1.1,0.1h-0.2l-0.2-0.1l-0.1-0.2v-0.2v-0.1l0.1-0.3l0.2-0.5l0.1-0.3l0.4-1l0.1-0.2l0.4-1l0.1-0.3l0.4-0.9l0.1-0.3
		l0.5-1l0.1-0.2l0.6-1.4l0.5-1l0.1-0.3l0.4-0.8l0.1-0.3l0.3-0.8l0.1-0.3l0.3-0.7l0.1-0.2l0.2-0.1l0.3-0.1h0.8h1.3H37l0.3,0.1
		l0.2,0.1l0.1,0.2l0.2,0.7l0.1,0.3l0.4,0.8l0.1,0.2l0.4,0.8l0.1,0.2l0.3,0.9l0.1,0.2l0.4,0.8l0.1,0.2l0.4,0.8l0.1,0.2l0.3,0.9
		l0.1,0.2l0.5,1.1l0.4,0.8l0.1,0.2l0.5,1.1L42.7,149.3z M37,144.5l-0.1-0.2l-0.4-1.2l-0.1-0.3l-0.3-1l-0.1-0.2l-0.2-0.1l-0.2-0.1
		l-0.2,0.1l-0.2,0.2l-0.5,1.2l-0.1,0.3l-0.4,1.1l0,0.2l0.1,0.2l0.2,0.1h0.2h1.1l0.8,0.1l0.2-0.1l0.1-0.1L37,144.5z"/>
	<path class="st0" d="M55.9,149.7l-0.2,0.1h-1.2h-0.9h-0.3h-0.8h-0.2l-0.2-0.1l-0.1-0.1l-0.5-0.8l-0.2-0.2l-0.5-0.7l-0.2-0.2
		l-0.5-0.8l-0.2-0.2l-0.5-0.7l-0.1-0.1l-0.1-0.1H49h-0.5h-0.2l-0.1,0.1l-0.1,0.2v0.9v0.3l0.1,1v0.3v0.4v0.3v0.3v0.2l-0.1,0.1
		l-0.2,0.1h-0.3l-0.8-0.1L46,150h-0.3l-0.8-0.1h-0.2l-0.1-0.1v-0.2v-0.2v-0.3v-0.4v-0.3l0.1-0.9v-0.3l-0.1-0.9V146v-0.9v-0.3
		l0.1-0.9v-0.4l-0.1-0.9v-0.3l0.1-0.9v-0.3v-0.9v-0.3V139v-0.3v-0.6v-0.3v-0.1l0.1-0.2l0.1-0.1l0.2-0.1h0.1h0.3h0.8l2,0.1l1.2-0.1
		h0.3l1.1,0.1h0.6h0.3l0.3,0.1l0.4,0.1l0.3,0.1l0.3,0.1l0.3,0.1l0.3,0.1l0.2,0.1l0.3,0.2l0.2,0.2l0.2,0.2l0.2,0.2l0.2,0.3l0.2,0.2
		l0.2,0.3l0.1,0.2l0.1,0.3l0.1,0.3l0.1,0.3v0.3v0.4v0.3v0.3v0.3l-0.1,0.3l-0.1,0.3l-0.1,0.3l-0.1,0.3l-0.2,0.3l-0.2,0.2l-0.2,0.2
		l-0.2,0.2l-0.3,0.3l-0.2,0.2l-0.3,0.2l-0.2,0.1l-0.2,0.1l-0.2,0.1l-0.1,0.1l0.1,0.1l0.6,0.9l0.2,0.2l0.6,0.8l0.2,0.2l0.6,0.9
		l0.2,0.2l0.5,0.6l0.2,0.2l0.1,0.2L55.9,149.7z M51.1,143.1l0.2-0.1l0.2-0.1l0.2-0.2l0.1-0.3l0.1-0.3v-0.3v-0.3v-0.3l-0.1-0.3
		l-0.1-0.3l-0.2-0.2l-0.2-0.2l-0.2-0.1l-0.4-0.1h-0.3h-0.9h-0.3l-0.9,0.1h-0.2l-0.1,0.1l-0.1,0.1v0.2v0.4v0.3v0.3v0.3v0.9v0.2v0.1
		l0.1,0.1h0.2l0.9,0.1h0.3l1.1-0.1L51.1,143.1z"/>
	<path class="st0" d="M68.2,148.2l-0.1,0.1l-0.3,0.3l-0.2,0.2l-0.3,0.2l-0.2,0.1l-0.3,0.2l-0.2,0.1l-0.4,0.2l-0.3,0.1l-0.3,0.1
		l-0.3,0.1l-0.4,0.1l-0.6,0.1H64h-0.4h-0.9h-0.3h-0.3l-0.3-0.1l-0.3-0.1l-0.3-0.1l-0.8-0.2l-0.4-0.1l-0.2-0.1l-0.3-0.2l-0.2-0.2
		l-0.2-0.2l-0.2-0.2l-0.4-0.4l-0.2-0.2l-0.2-0.2l-0.2-0.3l-0.2-0.2l-0.1-0.2l-0.1-0.2l-0.2-0.4l-0.3-0.7l-0.1-0.3l-0.2-0.5v-0.3
		v-0.4V144v-0.3v-0.3v-0.6v-0.3l0.1-0.3l0.1-0.4l0.1-0.3l0.1-0.3l0.1-0.2l0.1-0.3l0.1-0.2l0.1-0.3l0.1-0.3l0.2-0.3l0.2-0.2l0.2-0.2
		l0.2-0.2l0.2-0.2l0.2-0.2l0.2-0.2l0.2-0.2l0.5-0.4l0.2-0.1l0.2-0.1l0.5-0.2l0.3-0.1l0.3-0.1l0.6-0.1l0.3-0.1h0.3h0.5h0.4h0.3H64
		l0.6,0.1l0.2,0.1l0.4,0.1l0.6,0.2l0.2,0.1l0.4,0.2l0.2,0.1l0.4,0.3l0.5,0.4l0.2,0.1l0.1,0.1l0.1,0.1v0.1v0.1l-0.1,0.1l-0.2,0.2
		l-0.2,0.2l-0.2,0.2L67,140l-0.2,0.2l-0.3,0.3l-0.2,0.2l-0.1,0.1l-0.2,0.1l-0.1,0.1h-0.1h-0.1l-0.2-0.1l-0.3-0.2l-0.2-0.1l-0.4-0.2
		l-0.2-0.1l-0.4-0.1l-0.3-0.1h-0.4h-0.1h-0.4l-0.3,0.1l-0.3,0.3l-0.3,0.1l-0.2,0.1l-0.3,0.2l-0.2,0.2l-0.1,0.1l-0.2,0.2l-0.2,0.2
		l-0.1,0.2l-0.1,0.2l-0.1,0.3l-0.1,0.3l-0.1,0.3v0.3v0.5v0.3v0.4v0.3l0.1,0.4l0.1,0.3l0.1,0.3l0.1,0.3l0.3,0.4l0.2,0.2l0.3,0.3
		l0.2,0.2l0.3,0.2l0.3,0.1l0.4,0.1l0.3,0.1h0.4h0.4l0.2-0.1H64l0.3-0.1l0.4-0.2l0.3-0.1l0.3-0.1l0.2-0.1l0.3-0.2l0.2-0.2l0.2-0.1
		h0.1h0.2l0.2,0.1l0.2,0.2l0.1,0.1l0.2,0.2l0.3,0.3l0.2,0.2l0.5,0.5l0.2,0.2l0.1,0.1l0.1,0.2v-0.3H68.2z"/>
	<path class="st0" d="M81.1,148.2v0.3v0.4v0.3v0.2l-0.1,0.2l-0.1,0.1h-0.2h-0.3l-0.9-0.1h-0.3l-0.9,0.1H78l-0.2-0.1l-0.1-0.1v-0.2
		l-0.1-1.1v-0.3v-1.1v-0.3v-1.1v-0.2l-0.1-0.1l-0.2-0.1h-0.4l-0.7,0.1h-0.3h-1.4l-0.9-0.1h-0.2l-0.2,0.1l-0.1,0.2v0.2v1.1v0.3v1.1
		v0.3l0.1,0.7v0.4l-0.1,0.2l-0.2,0.1l-0.2,0.1h-0.3h-0.3l-0.7-0.1h-0.3l-0.8,0.1H70h0.2H70l-0.1-0.1l-0.1-0.1v-0.2v-0.2v-0.3v-0.5
		V147v-0.9v-0.3v-0.9v-0.3l-0.1-0.9v-0.2v-0.9v-1.2v-0.3l0.1-0.9v-0.3V139v-0.3l-0.1-0.6v-0.4l0.1-0.2l0.2-0.1l0.2-0.1h0.3h0.3h0.7
		h0.3l0.7-0.1h0.3h0.3h0.2l0.1,0.1l0.1,0.2v0.1v0.3l-0.1,0.8v0.3v1.1v1.4v0.2l0.1,0.1l0.1,0.1h0.2H74h0.2l0.6-0.1h0.3h1.1l1,0.1h0.3
		h0.1l0.2-0.1l0.1-0.1v-0.2l0.1-1.1v-0.3V139v-0.3v-1.1l0.1-0.3l0.1-0.2h0.2h0.3l0.9,0.1h0.3l0.8-0.1H81h0.2h0.2l0.1,0.1l0.1,0.2
		v0.3l-0.1,0.7v0.3l0.1,0.9v0.3v0.9v0.3l0.1,0.9v0.3l-0.1,0.9v0.3v0.9v0.3v0.9v0.3v0.9v1.4H81.1z"/>
</g>
<g class="st1">
	<path class="st2" d="M88.2,146.5v0.1v0.3v0.5v0.2v0.1v0.2v0.1v0.2l-0.1,0.2l-0.1,0.1l-0.1,0.2l-0.1,0.1l-0.1,0.1l-0.1,0.1l-0.1,0.1
		l-0.1,0.1l-0.1,0.1l-0.1,0.1l-0.2,0.1l-0.1,0.1l-0.2,0.1h-0.1l-0.2,0.1h-0.1h-0.2H86h-0.1h-0.1h-0.2h-0.1h-0.2h-0.1l-0.4-0.1h-0.1
		h-0.2h-0.1l-0.2-0.1l-0.1-0.1l-0.1-0.1l-0.1-0.1l-0.1-0.1l-0.1-0.1l-0.1-0.1l-0.1-0.1l-0.1-0.1l-0.1-0.1l-0.1-0.1v-0.1l-0.1-0.2
		v-0.1V148v-0.1v-0.1v-0.1v-0.2v-0.1v-0.3v-0.3v-0.2v-0.1v-0.2v-0.1V146v-0.1v-0.2v-0.1v-0.1l0.1-0.1l0.1-0.2l0.1-0.1l0.1-0.1
		l0.1-0.1l0.1-0.1l0.1-0.1l0.2-0.1l0.1-0.1l0.3-0.1l0.2-0.1h0.1h0.1h0.1h0.2h0.1h0.4h0.1h0.2H86l0.3,0.1h0.1h0.1h0.1l0.1,0.1
		l0.2,0.1l0.1,0.1l0.1,0.1l0.1,0.1l0.1,0.2l0.1,0.1l0.1,0.2l0.1,0.1v0.1v0.1l0.1,0.2v0.1v0.1v0.1v0.2v0.1L88.2,146.5z M84.9,148.1
		l0.1,0.1l0.1,0.1l0.1,0.1l0,0h0.1h0.1h0.1h0.1h0.2h0.1H86l0.1-0.1l0,0l0.1-0.1l0.1-0.1l0.1-0.1l0.1-0.3v-0.1v-0.2V147v-0.1v-0.2
		v-0.1v-0.2v-0.1v-0.1v-0.1l-0.1-0.2l-0.1-0.1l-0.1-0.1l0-0.2l-0.1-0.1H86h-0.1h-0.1h-0.1h-0.1h-0.1h-0.1h-0.1l-0.1,0.1l-0.1,0.1
		l-0.1,0.1l-0.1,0.1l-0.1,0.1v0.1v0.1v0.1v0.2v0.1v0.2v0.1v0.2v0.1v0.2v0.1v0.1v0.1v0.1L84.9,148.1L84.9,148.1z"/>
	<path class="st2" d="M93.8,146.7v0.5v0.1v0.5v0.1v0.2v0.1v0.2v0.1l-0.1,0.2l-0.1,0.1l-0.1,0.1l-0.1,0.1l-0.1,0.1l-0.1,0.1l-0.1,0.1
		l-0.1,0.1l-0.1,0.1l-0.1,0.1l-0.2,0.1h-0.1h-0.1h-0.1h-0.2H92h-0.3h-0.2h-0.3h-0.1H91l-0.3-0.1h-0.1h-0.2h-0.1h-0.1h-0.1H90
		l-0.1-0.1l-0.1-0.1l-0.1-0.1l-0.1-0.1l-0.1-0.1V149l-0.1-0.1l-0.1-0.2v-0.1v-0.1v-0.2l0,0v-0.1v-0.1l0,0h0.1h0.2h0.1h0.4h0.3h0.1
		h0.1h0.1l0.1,0.1v0.1v0.1l0.1,0.1H91l0.1,0.1h0.1h0.1h0.1h0.2h0.1h0.1h0.1H92l0.1-0.1l0.1-0.1l0.1-0.1l0.1-0.1l0.1-0.1V148l0,0
		v-0.1v-0.1v-0.1l-0.1-0.1h-0.1l0,0h-0.1l-0.1,0.1H92l-0.2,0.1h-0.1h-0.2h-0.1h-0.5h-0.1h-0.2h-0.1h-0.1h-0.1l-0.2-0.1l-0.1-0.1
		l-0.2-0.1l-0.1-0.1l-0.1-0.1l-0.1-0.1l-0.1-0.2l-0.1-0.1l-0.1-0.2v-0.2v-0.1v-0.2v-0.1v-0.2v-0.1v-0.1v-0.1l0.1-0.2l0.1-0.1
		l0.1-0.1l0.1-0.1l0.1-0.1l0.1-0.1l0.1-0.1l0.1-0.1l0.1-0.1l0.1-0.1l0.2-0.1h0.1h0.2l0.3-0.1h0.2h0.1h0.2h0.1h0.2h0.1h0.2h0.1h0.2
		l0.3,0.1h0.1l0.1,0.1l0.1,0.1l0.2,0.1l0.1,0.1l0.1,0.1l0.1,0.1l0.1,0.1l0.1,0.1l0.1,0.1l0.1,0.1l0.1,0.2v0.1v0.1v0.1v0.2v0.1v0.5
		H93.8z M92.1,146v-0.1v-0.1v-0.1l-0.1-0.1l-0.1-0.1l0,0l-0.1-0.1h-0.1h-0.1h-0.1h-0.2h-0.1H91h-0.1h-0.1h-0.1l-0.1,0.1l-0.1,0.1
		l-0.1,0.1l0,0v0.2v0.1v0.1v0.1l0.1,0.1l0.1,0.1l0.1,0.1l0.2,0.1H91h0.2h0.1h0.2h0.1h0.1l0.1-0.1l0.1-0.1l0.1-0.1v-0.1L92.1,146
		L92.1,146z"/>
	<path class="st2" d="M99,148.3L99,148.3L99,148.3l0.2,0.1h0.3h0.6h0.4h0.1h0.9h0.1h0.3h0.1h0.1v0.1v0.1v0.1v0.1v0.3v0.2v0.1v0.1
		v0.1l0,0l0,0h-0.2h-0.1h-0.2h-0.1h-0.6h-0.4h-0.7h-1.1h-0.6h-0.4h-0.1h-0.1l0,0v-0.1V149v-0.1v-0.5v-0.1v-0.2v-0.2v-0.1v-0.1v-0.1
		v-0.1l0.1-0.1l0.1-0.1l0.1-0.1l0.1-0.1L98,147l0.1-0.1l0.2-0.1l0.1-0.1l0.2-0.1h0.1l0.2-0.1H99h0.1h0.1h0.4h0.1h0.1h0.2h0.1h0.1
		l0.1-0.1l0.1-0.1l0.1-0.1V146v-0.2v-0.1v-0.1v-0.1l-0.1-0.1h-0.1h-0.2H100h-0.1h-0.1h-0.1h-0.1l-0.2,0.1l-0.1,0.1l0,0l-0.1,0.1l0,0
		l-0.1,0.1v0.1H99h-0.1h-0.1h-0.1h-0.3h-0.2h-0.1h-0.2h-0.1h-0.1l0,0v-0.1v-0.1v-0.1v-0.1v-0.1v-0.1l0.1-0.1l0.1-0.1L98,145l0.1-0.1
		l0.1-0.1l0.1-0.1l0.1-0.1l0.1-0.1l0.2-0.1l0.1-0.1h0.1h0.2h0.1h0.1h0.1h0.2h0.1h0.3h0.2h0.1h0.1h0.1h0.2h0.1l0.2,0.1h0.1h0.1
		l0.2,0.1l0.1,0.1l0.1,0.1l0.1,0.1l0.1,0.1l0.1,0.1l0.1,0.1l0.1,0.1l0.1,0.1v0.1v0.1v0.1v0.2v0.1v0.2v0.1v0.2v0.1v0.1l-0.1,0.1
		l-0.1,0.1l-0.1,0.1l-0.1,0.1l-0.1,0.1l-0.1,0.1l-0.1,0.1l-0.2,0.1h-0.1h-0.1H101h-0.1h-0.1h-0.2h-0.1h-0.1h-0.1h-0.2H100h-0.1h-0.1
		h-0.1h-0.1h-0.1l-0.1,0.1l0,0l-0.1,0.1l-0.1,0.1v0.1v0.1L99,148.3L99,148.3z"/>
	<path class="st2" d="M107.5,147.9v0.1v0.1v0.1v0.2v0.1l-0.1,0.2l-0.1,0.1l-0.1,0.1l-0.2,0.2l-0.1,0.1l-0.2,0.2l-0.1,0.1l-0.1,0.1
		l-0.1,0.1l-0.1,0.1l-0.2,0.1H106h-0.1h-0.1h-0.2h-0.1h-0.2h-0.1H105h-0.1h-0.1h-0.2h-0.1h-0.2h-0.1h-0.1l-0.1-0.1l-0.2-0.1
		l-0.1-0.1l-0.1-0.1l-0.1-0.1l-0.1-0.1l-0.1-0.1l-0.1-0.1l-0.1-0.1l-0.1-0.2v-0.1v-0.2v-0.1v-0.1v-0.1l0.1-0.1h0.1h0.2h0.4h0.1h0.3
		h0.2h0.1h0.1v0.1v0.1l0.1,0.1l0.1,0.1l0.1,0.1h0.1h0.1h0.2h0.1h0.2h0.1l0.1-0.1l0.1-0.1l0.1-0.1l0.1-0.1v-0.1V148v-0.1l0,0
		l-0.1-0.1l-0.1-0.1l-0.1-0.1l-0.1-0.1h-0.1h-0.2h-0.1h-0.2h-0.2h-0.5h-0.1h-0.9h-0.1l-0.1-0.1v-0.1v-0.5v-0.3V146v-0.1v-0.5v-0.1
		v-0.5v-0.1v-0.3v-0.1v-0.1v-0.1l0.1-0.1h0.1h0.2h0.3h0.1h0.4h0.1h0.4h0.7h0.4h0.7h0.2h0.2h0.1h0.1l0,0v0.1v0.1v0.1v0.2v0.2v0.1v0.1
		v0.1l-0.1,0.1h-0.1H107h-0.1h-0.3h-0.1h-0.6h-0.5H105h-0.1h-0.1h-0.1l-0.1,0.1v0.1v0.2v0.1v0.1l0.1,0.1h0.1h0.4h0.1h0.2h0.2h0.1
		h0.2h0.2h0.1l0.2,0.1l0.1,0.1l0.1,0.1l0.1,0.1l0.2,0.2l0.1,0.1l0.1,0.1l0.1,0.1v0.1l0.1,0.2v0.1v0.2v0.1L107.5,147.9z"/>
</g>
<g>
	<path class="st3" d="M33.1,48.9c0.2,2.2-0.1,6.5,2.1,10s5.8,9.3,5.6,11.3s-6.7,31.6-8,34.5c0,0,14.1,7.2,24.7,7.9
		c10.7,0.7,14.7-0.7,18.9-4.9c0,0,3.6-20.5,4.7-23.7c1-3.2,4.1-8.5,6.5-11.1s5.1-6.7,5.7-12.4c0.6-5.7,0.8-12.5,1.6-15.7
		s2.3-8.3,1.1-9.5s-6.1-11.2-7-13c-0.8-1.8-4.7-2.6-7.9-2.6c-0.5-2.3-1.8-6.9-4.7-7.6c-2.8-0.7-5.9-0.6-8.1-1
		c-1.2-2-4.8-5.2-6.2-6.6c-2.8,0.2-6.1,0-6.1,0L51,0c-1.8,0.8-8.4,1.6-9.6,1.9c-1.6,0.6-6,7.4-6.3,9.1c-1.6,1.3-5,5.5-5.3,5.8
		c-0.5,1.8-0.5,9.2-1,11.3c-0.7,2.6-2.4,7.4,0,10.8C31.3,42.6,32.9,46.7,33.1,48.9 M38.9,8c-0.5,1.2,2.4,0.9,2.5,1.4
		s-2.3,0.1-3.8,1.2c-1.3,0.9-0.8,0.3-0.6-0.6c0.2-0.9,1.8-2.8,1.8-2.8c1.2-1.5,1-2.2,2.4-1.4C42.6,6.4,39.4,6.8,38.9,8 M51.5,2.8
		c1.9,1.2,1.9,2,1.4,2.7c0.4-0.2-0.2,0.2-0.2,0.2c0.1-0.1,0.1-0.1,0.2-0.2c-0.2,0.1-0.6,0.4-1.5,0.9c-2.6,1.7-2.8-2.6-5.1-1.3
		C44,6.3,43.4,5.8,42.9,5c-0.5-0.9-2-0.6-1.4-1.4c0.7-0.8,1-0.1,3.6-0.7C47.8,2.2,49.4,1.5,51.5,2.8 M65.7,10
		c0.8,0.9-0.7,0.7-1.8,1.3c-1.1,0.7-0.6,3.5-1.5,7.7s-1.6,14-3,14.8c-1.4,0.7-2.2,0.1-2.1-1c0.1-1.1,1.4-0.6,1.7-1.7
		s2.4-16.8,2.5-18.3s-4.1-1.8-4.1-2.9c-0.1-1.1-1.3-2.4-2.2-2.1s-1.4-0.9,0.4-1.6c1.8-0.7,4.9-0.7,6.1,0C62.8,6.9,63.8,8.1,65.7,10
		 M79.2,20c0.3,0.8-2.6-0.3-3.6,0.3c-1.1,0.7-0.8,3.2-1.6,6.8c-0.8,3.7-3.2,11.1-4.7,13.2c-1.5,2-3.9,2-4.1,1.6
		c-0.2-0.4,7.1-18.2,8.6-21.5c1.5-3.3,0.2-3.8-1-4.8s-3.2,0.4-5.5,0.5s-2.7-3.9-1.1-3.9c1.6,0,7.9,0.4,9.5,0.8
		C77.1,13.5,78.3,17.5,79.2,20 M67.4,87.2c0.8-1.5-7.3-4.5-7.4-6.6c-0.1-2.2,9,2.7,12.3,0.8c3.2-1.9-6.6-2.8-4.9-4.2
		c1.8-1.4,6.1-1.1,6.9-3c0.8-1.9-5-3.8-1.9-3.8s6.5-0.7,5-2c-1.5-1.4-13.9-10.5-11.3-13c2.6-2.4,4.5-4.9,7-2.8
		c2.5,2,4.7,4.3,4.7,0.5s4.1-4.7,7.7-2.2c3.6,2.6,5.7-0.2,1.9-2.5s4.1-10.7,3.9-12.6c-0.1-1.9-3.1,0.7-4.3,0s0.7-7.1,0-6.5
		c-6.1,4.9-6.5,16.7-14,16.6c0.6-2.8,3.2-0.1,4.7-7.2c1.5-7,3.1-4,4.1-6c0.9-2.1,2.3-5,2-6.6s-4.2-0.5-5.5-1.1
		c-1.4-0.5-2.4-2.8-1.2-3.1c1.2-0.3,8.9-1.1,10.5,0.9s6.9,13.6,7,14.6l0,0v-0.3c0,0.1,0,0.1,0,0.2v0.1v0.5c-0.6,4-1.9,13.4-2.7,18.5
		c-0.5,3,0,5-4.2,12.7c-1.9,3.5-4.7,7.8-8.3,9.5c-6.5,3.1,0.7,0.8-0.5,4.1c-1.2,3.2-1.2,3.2-1.3,7.2l-3.1,17.4
		c-1.7,0.9-3.9,1.1-5.5-3.4c-1.4-3.7-2.2-6-3.3-3.2s-2,8-3.7,5.2c-1.8-3-0.9-7.6,2.6-9.5s4.9-3,4-4.6C67.6,90.3,66.5,88.7,67.4,87.2
		 M47.5,49.9c-1.5-1.6-6.1-7.1-5.9-9.1c0.2-2,1.1-8,4.8-8c3.6,0,7.8,3.3,8.7,5.6c0.9,2.2,0.2,3.4,1.3,4.4c1.2,0.9,3.5,1.7,4.6,3.7
		s0.9,3.9,0.7,7.5c-0.3,3.5-1.1,8.1-2.5,9S55,64.1,55,64.1c-4.1,0.5-4.1-2-4.8-3.4C49.7,59.3,49.1,51.6,47.5,49.9 M45.2,30.1
		c-1.2,2.2-8,7.4-10.3,9s-0.2-2.7,1.6-5.3c1.8-2.5,0.9-2.8-1-2.6c-1.9,0.2-0.1-1.7,1.5-3.3c1.6-1.6-0.4-3-1.4-4.3
		c-1-1.2-2.8-1.4,0.8-2.5s0.6,1.1,3,1.4c2.4,0.3,1.5-1.9,2.4-2.4c6.9,1.6,8.5-0.8,10.8-3.1c2.3-2.3,1.5-7,1.5-7s-2.1,0.5-5.8,1.1
		c-3.6,0.6-1.4,1.2-2.2,2.4c-0.8,1.2-2,0.9-2.8,0.3s-1.2-2.6-1.9-0.4s-1.1,0.4-4.3,0.7c-3.1,0.3-2.8-0.6-2.4-1.2s4.8-2.2,4.8-2.2
		L55,8.5c0,0,1-0.5,1.3,2.1c1.2,7.9-6.1,11.1-11.3,11.9C45,22.5,46.3,27.9,45.2,30.1"/>
</g>
<path class="st4" d="M91,23.9h22.2c2.9,0,5.3,2.4,5.3,5.3v126c0,2.9-2.4,5.3-5.3,5.3H5.8c-2.9,0-5.3-2.4-5.3-5.3v-126
	c0-2.9,2.4-5.3,5.3-5.3h22.3"/>
</svg>
